<?xml version="1.0" encoding="UTF-8"?>
<svg xmlns="http://www.w3.org/2000/svg" xmlns:xlink="http://www.w3.org/1999/xlink">

<!-- الاسبوع الأول -->
<g transform="translate(1024,0)">
    <image data-src="image/B/01.webp" width="1024" height="2454" />
<!-- Saturday 01 السبت -->
<g transform="translate(140,0)" >
</g>
<!-- Sunday 01 الأحد -->
<g transform="translate(253,0)" >
<rect x="0" y="0846" height="452" class="m w" data-href="1"/>
</g>
<!-- Monday 01 الإثنين -->
<g transform="translate(368,0)" >
<rect x="0" y="0412" height="433" class="m w" data-href="2"/>
<rect x="0" y="1298" height="381" class="m w" data-href="3"/>
<rect x="0" y="1683" height="430" class="m w" data-href="4"/>
</g>
<!-- Tuesday 01 الثلاثاء -->
<g transform="translate(484,0)" >
<rect x="0" y="0412" height="432" class="m w" data-href="5"/>
<rect x="0" y="0845" height="452" class="m w" data-href="6"/>
</g>
<!-- Wednesday 01 الأربع -->
<g transform="translate(598,0)" >
<rect x="0" y="0412" height="431" class="m w" data-href="7"/>
<rect x="0" y="1298" height="382" class="m w" data-href="8"/>
</g>
<!-- Thursday 02 الخميس -->
<g transform="translate(713,0)" >
<rect x="0" y="0413" height="430" class="m w" data-href="9"/>
<rect x="0" y="1300" height="382" class="m w" data-href="10"/>
</g></g>

<!-- الاسبوع الثاني -->
<g transform="translate(2048,0)">
    <image data-src="image/B/02.webp" width="1024" height="2454" />
<!-- Saturday 02 السبت -->
<g transform="translate(140,0)" >
</g>
<!-- Sunday 02 الأحد -->
<g transform="translate(253,0)" >
<rect x="0" y="0841" height="461" class="m w" data-href="1"/>
</g>
<!-- Monday 02 الإثنين -->
<g transform="translate(368,0)" >
<rect x="0" y="0422" height="417" class="m w" data-href="2"/>
<rect x="0" y="1303" height="391" class="m w" data-href="3"/>
<rect x="0" y="1696" height="419" class="m w" data-href="4"/>
</g>
<!-- Tuesday 02 الثلاثاء -->
<g transform="translate(484,0)" >
<rect x="0" y="0422" height="418" class="m w" data-href="5"/>
<rect x="0" y="0840" height="463" class="m w" data-href="6"/>
</g>
<!-- Wednesday 02 الأربع -->
<g transform="translate(598,0)" >
<rect x="0" y="0841" height="462" class="m w" data-href="7"/>
<rect x="0" y="1695" height="419" class="m w l" data-href="HIC/Lecture/Fouad/7-CAD and DM.pdf"/>
</g>
<!-- Thursday 02 الخميس -->
<g transform="translate(713,0)" >
</g></g>

<!-- الاسبوع الثالث -->
<g transform="translate(3072,0)">
    <image data-src="image/B/03.webp" width="1024" height="2454" />
<!-- Tuesday 03 الثلاثاء -->
<g transform="translate(484,0)" >
<rect x="0" y="0512" height="699" class="m w l" data-href="HIC/Lecture/Fouad/Environmental health.pdf"/>
<rect x="0" y="1211" height="704" class="m w" data-href="2"/>
</g>
<!-- Wednesday 03 الأربع -->
<g transform="translate(598,0)" >
<rect x="0" y="0512" height="699" class="m w" data-href="3"/>
<rect x="0" y="1211" height="704" class="m w" data-href="4"/>
</g>
<!-- Thursday 03 الخميس -->
<g transform="translate(713,0)" >
<rect x="0" y="0512" height="699" class="m w" data-href="5"/>
<rect x="0" y="1211" height="704" class="m w" data-href="6"/>
</g></g>

<!-- الاسبوع الرابع -->
<g transform="translate(4096,0)">
    <image data-src="image/B/04.webp" width="1024" height="2454" />
</g>

<!-- الاسبوع الخامس -->
<g transform="translate(5120,0)">

<image data-src="image/B/15/05.webp" width="1024" height="2454" />

    <!-- Sunday 05 الأحد -->
    <g transform="translate(253,0)">
        <rect x="0" y="321"  height="438" class="m w" data-href="GIT/Practical/Anatomy-01.pdf"/>
        <rect x="0" y="758"  height="503" class="m w l" data-href="GIT/Lecture/Microbiology-01.pdf"/>
        <rect x="0" y="1260" height="534" class="m w" data-href="GIT/Practical/Histology-01.pdf"/>
        <rect x="0" y="1795" height="406" class="m w" data-href="ipc"/>
    </g>

    <!-- Monday 05 الإثنين -->
    <g transform="translate(368,0)">
    <rect x="0" y="322" height="328" class="m w l" data-href="GIT/Lecture/Histology-01.pdf"/>
    <rect x="0" y="1249" height="544" class="m w s" data-href="GIT/Practical/Physiology-01.pdf"/>
    <rect x="0" y="1794" height="406" class="m w l" data-href="GIT/Lecture/Anatomy-01.pdf"/>
    <rect x="0" y="2222" height="79"  class="m w" data-href="9"/>
    </g>

    <!-- Tuesday 05 الثلاثاء -->
    <g transform="translate(484,0)">
        <rect x="0" y="758" height="503" class="m w" data-href="10"/>
        <rect x="0" y="1794" height="407" class="m w l" data-href="GIT/Lecture/Biochemistry-01.pdf"/>
    </g>

    <!-- Thursday 05 الخميس -->
    <g transform="translate(713,0)">
        <rect x="0" y="321" height="437" class="m w" data-href="14"/>
        <rect x="0" y="1261" height="533" class="m w" data-href="15"/>
    </g>

</g>
<!-- الاسبوع السادس -->
<g transform="translate(6144,0)">
    <image data-src="image/B/06.webp" width="1024" height="2454" />
<!-- Image Map Generated by https://www.fla-shop.com/image-map/ -->
<svg style="width:100%" xmlns="http://www.w3.org/2000/svg" xmlns:xlink="http://www.w3.org/1999/xlink" viewBox="0 0 1024 2454">
<style>
.image-mapper-shape {
    fill: rgba(0, 0, 0, 0);
}
g:hover .image-mapper-shape {
    stroke: white;
    stroke-width: 2px;
    opacity: 20%;
}
</style>
        
<image xlink:href="06.webp" style="width: 1024px;"></image>
<a xlink:href="#" target="---" xlink:title="">
<g>
<rect x="139.2292557226245" y="834.8622195847028" width="113.62583134592316" height="518.725220665055" class="image-mapper-shape" data-index="1"></rect>
</g>
</a>
<a xlink:href="#" target="---" xlink:title="">
<g>
<rect x="138.74931896138418" y="1787.2627177269942" width="113.19421862316327" height="465.18264170093016" class="image-mapper-shape" data-index="2"></rect>
</g>
</a>
<a xlink:href="#" target="---" xlink:title="">
<g>
<rect x="254.65585809797608" y="833.3606884993582" width="113.44299286935285" height="520.3434038376325" class="image-mapper-shape" data-index="3"></rect>
</g>
</a>
<a xlink:href="#" target="---" xlink:title="">
<g>
<rect x="254.06824599215366" y="1355.3138911407978" width="113.66579379924457" height="432.1227111037258" class="image-mapper-shape" data-index="4"></rect>
</g>
</a>
<a xlink:href="#" target="---" xlink:title="">
<g>
<rect x="483.9395226851339" y="343.84478593952167" width="113.97861277535804" height="487.93490224006496" class="image-mapper-shape" data-index="5"></rect>
</g>
</a>
<a xlink:href="#" target="---" xlink:title="">
<g>
<rect x="483.1862965124967" y="833.5422283101137" width="113.93910599425237" height="520.8249582352381" class="image-mapper-shape" data-index="6"></rect>
</g>
</a>
<a xlink:href="#" target="---" xlink:title="">
<g>
<rect x="483.9728323241054" y="1354.9573731991936" width="114.0390804783882" height="432.5627081952566" class="image-mapper-shape" data-index="7"></rect>
</g>
</a>
<a xlink:href="#" target="---" xlink:title="">
<g>
<rect x="482.8929803072175" y="1788.8965760237925" width="113.92575479833079" height="465.1684247278008" class="image-mapper-shape" data-index="8"></rect>
</g>
</a>
<a xlink:href="#" target="---" xlink:title="">
<g>
<rect x="597.7586501849789" y="343.8641064414701" width="114.63947418986243" height="367.4205373069609" class="image-mapper-shape" data-index="9"></rect>
</g>
</a>
<a xlink:href="#" target="---" xlink:title="">
<g>
<rect x="599.6451331581903" y="832.4362207080418" width="114.61901450737525" height="521.1311699642232" class="image-mapper-shape" data-index="10"></rect>
</g>
</a>
<a xlink:href="#" target="---" xlink:title="">
<g>
<rect x="712.2010005743072" y="343.02421141339664" width="114.67902653818976" height="490.2289384430446" class="image-mapper-shape" data-index="11"></rect>
</g>
</a>
<a xlink:href="#" target="---" xlink:title="">
<g>
<rect x="712.3114555194054" y="831.9936718521037" width="114.0428169905573" height="522.7413333058032" class="image-mapper-shape" data-index="12"></rect>
</g>
</a>
<a xlink:href="#" target="---" xlink:title="">
<g>
<rect x="713.4375126989706" y="1355.3339407182907" width="112.15934145396989" height="432.4227256905767" class="image-mapper-shape selected" data-index="13"></rect>
</g>
</a>
</svg>
</g>
</svg>