<?xml version="1.0" encoding="UTF-8"?>
<svg xmlns="http://www.w3.org/2000/svg" xmlns:xlink="http://www.w3.org/1999/xlink">

<!-- الاسبوع الأول -->
<g transform="translate(1024,0)">
    <image data-src="image/B/01.webp" width="1024" height="2454" />
<!-- Saturday 01 السبت -->
<g transform="translate(140,0)" >
</g>
<!-- Sunday 01 الأحد -->
<g transform="translate(253,0)" >
<rect x="0" y="0846" height="452" class="m w" data-href="1"/>
</g>
<!-- Monday 01 الإثنين -->
<g transform="translate(368,0)" >
<rect x="0" y="0412" height="433" class="m w" data-href="2"/>
<rect x="0" y="1298" height="381" class="m w" data-href="3"/>
<rect x="0" y="1683" height="430" class="m w" data-href="4"/>
</g>
<!-- Tuesday 01 الثلاثاء -->
<g transform="translate(484,0)" >
<rect x="0" y="0412" height="432" class="m w" data-href="5"/>
<rect x="0" y="0845" height="452" class="m w" data-href="6"/>
</g>
<!-- Wednesday 01 الأربع -->
<g transform="translate(598,0)" >
<rect x="0" y="0412" height="431" class="m w" data-href="7"/>
<rect x="0" y="1298" height="382" class="m w" data-href="8"/>
</g>
<!-- Thursday 02 الخميس -->
<g transform="translate(713,0)" >
<rect x="0" y="0413" height="430" class="m w" data-href="9"/>
<rect x="0" y="1300" height="382" class="m w" data-href="10"/>
</g></g>

<!-- الاسبوع الثاني -->
<g transform="translate(2048,0)">
    <image data-src="image/B/02.webp" width="1024" height="2454" />
<!-- Saturday 02 السبت -->
<g transform="translate(140,0)" >
</g>
<!-- Sunday 02 الأحد -->
<g transform="translate(253,0)" >
<rect x="0" y="0841" height="461" class="m w" data-href="1"/>
</g>
<!-- Monday 02 الإثنين -->
<g transform="translate(368,0)" >
<rect x="0" y="0422" height="417" class="m w" data-href="2"/>
<rect x="0" y="1303" height="391" class="m w" data-href="3"/>
<rect x="0" y="1696" height="419" class="m w" data-href="4"/>
</g>
<!-- Tuesday 02 الثلاثاء -->
<g transform="translate(484,0)" >
<rect x="0" y="0422" height="418" class="m w" data-href="5"/>
<rect x="0" y="0840" height="463" class="m w" data-href="6"/>
</g>
<!-- Wednesday 02 الأربع -->
<g transform="translate(598,0)" >
<rect x="0" y="0841" height="462" class="m w" data-href="7"/>
<rect x="0" y="1695" height="419" class="m w l" data-href="HIC/Lecture/Fouad/7-CAD and DM.pdf"/>
</g>
<!-- Thursday 02 الخميس -->
<g transform="translate(713,0)" >
</g></g>

<!-- الاسبوع الثالث -->
<g transform="translate(3072,0)">
    <image data-src="image/B/03.webp" width="1024" height="2454" />
<!-- Tuesday 03 الثلاثاء -->
<g transform="translate(484,0)" >
<rect x="0" y="0512" height="699" class="m w l" data-href="HIC/Lecture/Fouad/Environmental health.pdf"/>
<rect x="0" y="1211" height="704" class="m w" data-href="2"/>
</g>
<!-- Wednesday 03 الأربع -->
<g transform="translate(598,0)" >
<rect x="0" y="0512" height="699" class="m w" data-href="3"/>
<rect x="0" y="1211" height="704" class="m w" data-href="4"/>
</g>
<!-- Thursday 03 الخميس -->
<g transform="translate(713,0)" >
<rect x="0" y="0512" height="699" class="m w" data-href="5"/>
<rect x="0" y="1211" height="704" class="m w" data-href="6"/>
</g></g>

<!-- الاسبوع الرابع -->
<g transform="translate(4096,0)">
    <image data-src="image/B/04.webp" width="1024" height="2454" />
</g>

<!-- الاسبوع الخامس -->
<g transform="translate(5120,0)">
    <image data-src="image/B/05.webp" width="1024" height="2454" />

<!-- Sunday 05 الأحد -->
<g transform="translate(253,0)"> 
<rect x="253.39503586060238" y="284.7178528369198" width="114.4656808067748" height="560.9299458257353" class="image-mapper-shape" data-index="1"></rect>
</g>
</a>
<a xlink:href="#" target="---" xlink:title="">
<g>
<rect x="253.75308030412913" y="846.0706624788731" width="115.47889076210907" height="552.1245359285529" class="image-mapper-shape" data-index="2"></rect>
</g>
</a>
<a xlink:href="#" target="---" xlink:title="">
<g>
<rect x="253.91459332100226" y="1400.4586134375068" width="114.10305685747977" height="470.2945548861187" class="image-mapper-shape" data-index="3"></rect>
</g>
</a>
<a xlink:href="#" target="---" xlink:title="">
<g>
<rect x="254.16464344939595" y="1869.8071928037248" width="114.68565656892883" height="360.4050078732507" class="image-mapper-shape selected" data-index="4"></rect>
</g>

<!-- Monday 05 الإثنين -->
<g transform="translate(368,0)">
<rect x="0" y="314" height="478" class="m w" data-href="6"/>
<rect x="0" y="1287" height="519" class="m w" data-href="7"/>
<rect x="0" y="1807" height="397" class="m w" data-href="8"/>
<rect x="0" y="2225" height="78"  class="m w" data-href="9"/>
</g>

<!-- Tuesday 05 الثلاثاء -->
<g transform="translate(484,0)">
<rect x="0" y="314" height="474" class="m w" data-href="10"/>
<rect x="0" y="792" height="493" class="m w" data-href="11"/>
<rect x="0" y="1415" height="262" class="m w" data-href="12"/>
<rect x="0" y="1809" height="395" class="m w" data-href="13"/>
</g>

<!-- Thursday 05 الخميس -->
<g transform="translate(713,0)">
<rect x="0" y="315" height="478" class="m w" data-href="14"/>
<rect x="0" y="1287" height="518" class="m w" data-href="15"/>
<rect x="0" y="1807" height="399" class="m w" data-href="16"/>
</g>

</g>
</svg>