p<!-- groups/group-B.svg -->
<?xml version="1.0" encoding="UTF-8"?>
<svg xmlns="http://www.w3.org/2000/svg" xmlns:xlink="http://www.w3.org/1999/xlink">

<!-- الاسبوع الأول -->
<g transform="translate(1024,0)">
    <image data-src="image/B/01.webp" width="1024" height="2454" />
<!-- Saturday 01 -->
<g transform="translate(140,0)" >
</g>
<!-- Sunday 01 -->
<g transform="translate(253,0)" >
</g>
<!-- Monday 01 -->
<g transform="translate(368,0)" >
</g>
<!-- Tuesday 01 -->
<g transform="translate(484,0)" >
</g>
<!-- Wednesday 01 -->
<g transform="translate(598,0)" >
</g>
<!-- Thursday 01 -->
<g transform="translate(713,0)" >
</g>
</g>

<!-- الاسبوع الثاني -->
<g transform="translate(2048,0)">
    <image data-src="image/B/02.webp" width="1024" height="2454" />
</g>

<!-- الاسبوع الثالث -->
<g transform="translate(3072,0)">
    <image data-src="image/B/03.webp" width="1024" height="2454" />
</g>

<!-- الاسبوع الرابع -->
<g transform="translate(4096,0)">
    <image data-src="image/B/04.webp" width="1024" height="2454" />
</g>

<!-- الاسبوع الخامس -->
<g transform="translate(5120,0)">
    <image data-src="image/B/05.webp" width="1024" height="2454" />
</g>

<!-- الاسبوع السادس -->
<g transform="translate(6144,0)">
    <image data-src="image/B/06.webp" width="1024" height="2454" />
</g>

<!-- الاسبوع السابع -->
<g transform="translate(7168,0)">
    <image data-src="image/B/07.webp" width="1024" height="2454" />
</g>

<!-- الاسبوع الثامن -->
<g transform="translate(8192,0)">
    <image data-src="image/B/08.webp" width="1024" height="2454" />
</g>

<!-- الاسبوع التاسع -->
<g transform="translate(9216,0)">
    <image data-src="image/B/09.webp" width="1024" height="2454"/>
</g>

<!-- الاسبوع العاشر -->
<g transform="translate(10240,0)">
    <image data-src="image/B/10.webp" width="1024" height="2454" />
</g>

<!-- الاسبوع الحادي عشر-->
<g transform="translate(11264,0)">
    <image data-src="image/B/11.webp" width="1024" height="2454" />
</g>

<!-- الاسبوع الثاني عشر -->
<g transform="translate(12288,0)">
    <image data-src="image/B/12.webp" width="1024" height="2454" />
</g>

<!-- الاسبوع الثالث عشر-->
<g transform="translate(13312,0)">
    <image data-src="image/B/13.webp" width="1024" height="2454" />
</g>

<!-- الاسبوع الرابع عشر-->
<g transform="translate(14336,0)">
    <image data-src="image/B/14.webp" width="1024" height="2454" />
</g>

<!-- الاسبوع الخامس عشر -->
<g transform="translate(15360,0)">
    <image data-src="image/B/15.webp" width="1024" height="2454" />
</g>

<!-- الاسبوع السادس عشر -->
<g transform="translate(16384,0)">
    <image data-src="image/B/16.webp" width="1024" height="2454" />
</g>

<!-- الاسبوع السابع عشر -->
<g transform="translate(17408,0)">
    <image data-src="image/B/17.webp" width="1024" height="2454" />
</g>

<!-- الاسبوع الثامن عشر -->
<g transform="translate(18432,0)">
    <image data-src="image/B/18.webp" width="1024" height="2454" />
</g>

<!-- الاسبوع التاسع عشر -->
<g transform="translate(19456,0)">
    <image data-src="image/B/19.webp" width="1024" height="2454" />
</g>

<!-- الاسبوع العشرين -->
<g transform="translate(20480,0)">
    <image data-src="image/B/20.webp" width="1024" height="2454" />
</g>

<!-- الاسبوع الواحد و العشرين -->
<g transform="translate(21504,0)">
    <image data-src="image/B/21.webp" width="1024" height="2454" />
</g>

<!-- الاسبوع الثاني و العشرين -->
<g transform="translate(22528,0)">
    <image data-src="image/B/22.webp" width="1024" height="2454" />
</g>

<g id="dynamic-links-group"></g>
</svg>