<!-- groups/group-B.svg -->
<?xml version="1.0" encoding="UTF-8"?>
<svg xmlns="http://www.w3.org/2000/svg" xmlns:xlink="http://www.w3.org/1999/xlink">

<!-- الاسبوع الأول -->
<g transform="translate(1024,0)">
    <image data-src="image/B/01.webp" width="1024" height="2454" />
</g>

<!-- الاسبوع الثاني -->
<g transform="translate(2048,0)">
    <image data-src="image/B/02.webp" width="1024" height="2454" />
</g>

<!-- الاسبوع الثالث -->
<g transform="translate(3072,0)">
    <image data-src="image/B/03.webp" width="1024" height="2454" />
</g>

<!-- الاسبوع الرابع -->
<g transform="translate(4096,0)">
    <image data-src="image/B/04.webp" width="1024" height="2454" />
</g>

<!-- الاسبوع الخامس -->
<g transform="translate(5120,0)">
    <image data-src="image/B/05.webp" width="1024" height="2454" />
</g>

<!-- الاسبوع السادس -->
<g transform="translate(6144,0)">
    <image data-src="image/B/06.webp" width="1024" height="2454" />
</g>

<!-- الاسبوع السابع -->
<g transform="translate(7168,0)">
    <image data-src="image/B/07.webp" width="1024" height="2454" />
</g>

<!-- الاسبوع الثامن -->
<g transform="translate(8192,0)">
    <image data-src="image/B/08.webp" width="1024" height="2454" />
    
    <!-- Monday 8 -->
    <g transform="translate(368,0)">
    </g>
    
    <!-- Wednesday 8 -->
    <g transform="translate(598,0)">
    </g>
    
    <!-- Thursday 8 -->
    <g transform="translate(712.35,0)">
    </g>
</g>

<!-- الاسبوع التاسع -->
<g transform="translate(9216,0)">
    <image data-src="image/B/09.webp" width="1024" height="2454"/>
    
    <!-- Saturday 9 -->
    <g transform="translate(140,0)">
    </g>
    
    <!-- Monday 9 -->
    <g transform="translate(370,0)">
    </g>
    
    <!-- Tuesday 9 -->
    <g transform="translate(485,0)">
    </g>
    
    <!-- Wednesday 9 -->
    <g transform="translate(600,0)">
    </g>
    
    <!-- Thursday 9 -->
    <g transform="translate(715,0)">
    </g>
</g>

<!-- الاسبوع العاشر -->
<g transform="translate(10240,0)">
    <image data-src="image/B/10.webp" width="1024" height="2454" />
</g>

<!-- الاسبوع الحادي عشر-->
<g transform="translate(11264,0)">
    <image data-src="image/B/11.webp" width="1024" height="2454" />
</g>

<!-- الاسبوع الثاني عشر -->
<g transform="translate(12288,0)">
    <image data-src="image/B/12.webp" width="1024" height="2454" />
    
    <!-- Saturday 12 -->
    <g transform="translate(138.41,0)">
    </g>
</g>

<!-- الاسبوع الثالث عشر-->
<g transform="translate(13312,0)">
    <image data-src="image/B/13.webp" width="1024" height="2454" />
    
    <!-- Saturday 13 -->
    <g transform="translate(139,0)">
    </g>
    
    <!-- Monday 13 -->
    <g transform="translate(368,0)">
    </g>
    
    <!-- Tuesday 13 -->
    <g transform="translate(485,0)">
    </g>
    
    <!-- Wednesday 13 -->
    <g transform="translate(598,0)">
    </g>
    
    <!-- Thursday 13 -->
    <g transform="translate(714,0)">
    </g>
</g>

<!-- الاسبوع الرابع عشر-->
<g transform="translate(14336,0)">
    <image data-src="image/B/14.webp" width="1024" height="2454" />
    
    <!-- Saturday 14 -->
    <g transform="translate(138,0)">
    </g>
    
    <!-- Sunday 14 -->
    <g transform="translate(252.8,0)">
    </g>
    
    <!-- Monday 14 -->
    <g transform="translate(368.5,0)">
    </g>

    <!-- Tuesday 14 -->
    <g transform="translate(483,0)">
    </g>

    <!-- Wednesday 14 -->
    <g transform="translate(598,0)">
    </g>

    <!-- Thursday 14 -->
    <g transform="translate(712.5,0)">
    </g>
</g>

<!-- الاسبوع الخامس عشر -->
<g transform="translate(15360,0)">
    <image data-src="image/B/15.webp" width="1024" height="2454" />
</g>

<!-- الاسبوع السادس عشر -->
<g transform="translate(16384,0)">
    <image data-src="image/B/16.webp" width="1024" height="2454" />
</g>

<!-- الاسبوع السابع عشر -->
<g transform="translate(17408,0)">
    <image data-src="image/B/17.webp" width="1024" height="2454" />
    
    <!-- Monday 17 -->
    <g transform="translate(368,0)">
    </g>

    <!-- Tuesday 17 -->
    <g transform="translate(484,0)">
    </g>

    <!-- Wednesday 17 -->
    <g transform="translate(598,0)">
    </g>

    <!-- Thursday 17 -->
    <g transform="translate(713,0)">
    </g>
</g>

<!-- الاسبوع الثامن عشر -->
<g transform="translate(18432,0)">
    <image data-src="image/B/18.webp" width="1024" height="2454" />
</g>

<!-- الاسبوع التاسع عشر -->
<g transform="translate(19456,0)">
    <image data-src="image/B/19.webp" width="1024" height="2454" />
    
    <!-- Saturday 19 -->
    <g transform="translate(140,0)">
    </g>

    <!-- Monday 19 -->
    <g transform="translate(368,0)">
    </g>

    <!-- Tuesday 19 -->
    <g transform="translate(484,0)">
    </g>

    <!-- Wednesday 19 -->
    <g transform="translate(598,0)">
 </g>
</g>

<!-- الاسبوع العشرين -->
<g transform="translate(20480,0)">
    <image data-src="image/B/20.webp" width="1024" height="2454" />
</g>

<!-- الاسبوع الواحد و العشرين -->
<g transform="translate(21504,0)">
    <image data-src="image/B/21.webp" width="1024" height="2454" />
    
    <!-- Saturday 21 -->
    <g transform="translate(140,0)">
    </g>
    
    <!-- Sunday 21 -->
    <g transform="translate(253,0)">
    </g>
    
    <!-- Monday 21 -->
    <g transform="translate(368.5,0)">
    </g>
    
    <!-- Wednesday 21 -->
    <g transform="translate(598,0)">
    </g>
    
    <!-- Thursday 21 -->
    <g transform="translate(713,0)">
</g>

<!-- الاسبوع الثاني و العشرين -->
<g transform="translate(22528,0)">
    <image data-src="image/B/22.webp" width="1024" height="2454" />
<!-- Saturday 22 -->
<g transform="translate(140,0)" >
</g>
<!-- Sunday 22 -->
<g transform="translate(253,0)" >
</g>
<!-- Monday 22 -->
<g transform="translate(368,0)" >
</g>
<!-- Tuesday 22 -->
<g transform="translate(484,0)" >
</g>
<!-- Wednesday 22 -->
<g transform="translate(598,0)" >
</g>
<!-- Thursday 22 -->
<g transform="translate(713,0)" >
</g>
</g>

<g id="dynamic-links-group"></g>
</svg>