p<!-- groups/group-B.svg -->
<?xml version="1.0" encoding="UTF-8"?>
<svg xmlns="http://www.w3.org/2000/svg" xmlns:xlink="http://www.w3.org/1999/xlink">

<!-- الاسبوع الأول -->
<g transform="translate(1024,0)">
    <image data-src="image/B/01.webp" width="1024" height="2454" />
<!-- Saturday 01 -->
<g transform="translate(140,0)" >
</g>
<!-- Sunday 01 -->
<g transform="translate(253,0)" >

<rect x="0" y="846" height="452.8" class="m w" data-href="1"/>

</g>
<!-- Monday 01 -->
<g transform="translate(368,0)" >

<rect x="0" y="412" height="433.3" class="m w" data-href="2"/>

<rect x="0" y="1298.8" height="381.8" class="m w" data-href="3"/>

<rect x="0" y="1683" height="430.4" class="m w" data-href="4"/>

</g>
<!-- Tuesday 01 -->
<g transform="translate(484,0)" >

<rect x="0" y="412.6" height="432.1" class="m w" data-href="5"/>

<rect x="0" y="845.4" height="452.1" class="m w" data-href="6"/>

</g>
<!-- Wednesday 01 -->
<g transform="translate(598,0)" >

<rect x="0" y="412.2" height="431.3" class="m w" data-href="7"/>

<rect x="0" y="1298.7" height="382.4" class="m w" data-href="8"/>

</g>
<!-- Thursday 01 -->
<g transform="translate(713,0)" >

<rect x="0" y="413.5" height="430.2" class="m w" data-href="9"/>

<rect x="0" y="1300" height="382" class="m w" data-href="10"/>

</g>
</g>

<!-- الاسبوع الثاني -->
<g transform="translate(2048,0)">
    <image data-src="image/B/02.webp" width="1024" height="2454" />

<!-- Saturday 02 -->
<g transform="translate(140,0)" >

<rect 0" y="841" height="461.4" class="m w" data-href="1"/>

<rect 0" y="422.5" height="417.4" class="m w" data-href="2"/>

<rect x="0" y="1303.4" height="391.3" class="m w" data-href="3"/>

<rect x="0" y="1695.8" height="418.6" class="m w" data-href="4"/>

<rect x="0" y="422" height="418" class="m w" data-href="5"/>

<rect x="0" y="840.5" height="463.1" class="m w" data-href="6"/>

<rect x="0" y="840.7" height="462" class="m w" data-href="7"/>

<rect x="0" y="1695" height="419.7" class="m w" data-href="8"/>

</g>
</g>
<g id="dynamic-links-group"></g>
</svg>