p<!-- groups/group-B.svg -->
<?xml version="1.0" encoding="UTF-8"?>
<svg xmlns="http://www.w3.org/2000/svg" xmlns:xlink="http://www.w3.org/1999/xlink">

<!-- الاسبوع الأول -->
<g transform="translate(1024,0)">
    <image data-src="image/B/01.webp" width="1024" height="2454" />
<!-- Saturday 01 -->
<g transform="translate(140,0)" >
</g>
<!-- Sunday 01 -->
<g transform="translate(253,0)" >

<rect x="0" y="846" height="452.8" class="m w" data-href="1"/>

</g>
<!-- Monday 01 -->
<g transform="translate(368,0)" >

<rect x="0" y="412" height="433.2761086162366" class="m w" data-href="2"/>

<rect x="0" y="1298.7908513478865" height="381.8321736089779" class="m w" data-href="3"/>

<rect x="0" y="1683.0038211497224" height="430.3572546710186" class="m w" data-href="4"/>

</g>
<!-- Tuesday 01 -->
<g transform="translate(484,0)" >

<rect x="0" y="412.6348863182374" height="432.0818828731946" class="m w" data-href="5"/>

<rect x="0" y="845.3871541552453" height="452.0840704558243" class="m w" data-href="6"/>

</g>
<!-- Wednesday 01 -->
<g transform="translate(598,0)" >

<rect x="0" y="412.20145090661407" height="431.27078632915715" class="m w" data-href="7"/>

<rect x="0" y="1298.6814900161062" height="382.39975892091843" class="m w" data-href="8"/>

</g>
<!-- Thursday 01 -->
<g transform="translate(713,0)" >

<rect x="0" y="413.5385754565154" height="430.1658723404027" class="m w" data-href="9"/>

<rect x="0" y="1299.5676813412995" height="381.8617011685592" class="m w" data-href="10"/>

</g>
</g>

<!-- الاسبوع الثاني -->
<g transform="translate(2048,0)">
    <image data-src="image/B/02.webp" width="1024" height="2454" />
<!-- Saturday 02 -->
<g transform="translate(140,0)" >
</g>
<!-- Sunday 02 -->
<g transform="translate(253,0)" >
</g>
<!-- Monday 02 -->
<g transform="translate(368,0)" >
</g>
<!-- Tuesday 02 -->
<g transform="translate(484,0)" >
</g>
<!-- Wednesday 02 -->
<g transform="translate(598,0)" >
</g>
<!-- Thursday 02 -->
<g transform="translate(713,0)" >
</g>
</g>
<g id="dynamic-links-group"></g>
</svg>